<?xml version="1.0" encoding="utf-8"?>
<!-- Generator: Adobe Illustrator 18.1.1, SVG Export Plug-In . SVG Version: 6.00 Build 0)  -->
<svg version="1.1" id="Слой_1" xmlns="http://www.w3.org/2000/svg" xmlns:xlink="http://www.w3.org/1999/xlink" x="0px" y="0px"
	 viewBox="0 0 841.9 595.3" enable-background="new 0 0 841.9 595.3" xml:space="preserve">
<path fill="#FFFFFF" d="M697.7,245.7c0,17.3-14.4,30.8-30.8,30.8h-30.8l0.7,154.1c0,2.6-0.2,5.2-0.5,7.8v15.5
	c0,21.3-17.2,38.5-38.5,38.5h-15.4c-1.1,0-2.2,0-3.1-0.1c-1.3,0.1-2.7,0.1-4.1,0.1H544H521c-21.3,0-38.5-17.2-38.5-38.5v-23.1v-61.5
	c0-17-13.7-30.8-30.8-30.8h-61.5c-17,0-30.8,13.7-30.8,30.8v61.5v23.1c0,21.3-17.2,38.5-38.5,38.5h-23.1h-30.8
	c-1.4,0-2.9-0.1-4.3-0.2c-1.2,0.1-2.3,0.2-3.5,0.2H244c-21.3,0-38.5-17.2-38.5-38.5V346.2c0-0.8,0-1.8,0.1-2.7v-66.9h-30.8
	c-17.3,0-30.8-13.5-30.8-30.8c0-8.7,2.9-16.4,9.6-23.1L400.1,7.7C406.9,1,414.6,0,421.3,0c6.7,0,14.4,1.9,20.2,6.7L687,222.5
	C694.8,229.3,698.6,237,697.7,245.7z"/>
</svg>
