<?xml version="1.0" encoding="utf-8"?>
<!-- Generator: Adobe Illustrator 18.1.1, SVG Export Plug-In . SVG Version: 6.00 Build 0)  -->
<svg version="1.1" id="Слой_1" xmlns="http://www.w3.org/2000/svg" xmlns:xlink="http://www.w3.org/1999/xlink" x="0px" y="0px"
	 viewBox="0 0 841.9 595.3" enable-background="new 0 0 841.9 595.3" xml:space="preserve">
<path fill="#FFFFFF" d="M702.4,6.5c11.7,8.1,17.9,22.2,15.7,36.3l-74.4,483.7c-1.7,11.3-8.6,21.2-18.6,26.7c-10,5.6-22,6.3-32.6,1.9
	l-139.1-57.8l-79.6,86.2c-10.3,11.3-26.6,15-40.9,9.4c-14.3-5.6-23.6-19.4-23.6-34.8v-97.2c0-4.7,1.7-9.1,4.9-12.4l194.9-212.6
	c6.7-7.3,6.5-18.6-0.5-25.6s-18.3-7.4-25.6-0.8L246.5,419.5l-102.7-51.4c-12.3-6.2-20.2-18.5-20.6-32.2
	c-0.3-13.7,6.9-26.5,18.7-33.4L662.9,4.9C675.3-2.2,690.7-1.5,702.4,6.5L702.4,6.5z"/>
</svg>
