<?xml version="1.0" encoding="utf-8"?>
<!-- Generator: Adobe Illustrator 18.1.1, SVG Export Plug-In . SVG Version: 6.00 Build 0)  -->
<svg version="1.1" id="Слой_1" xmlns="http://www.w3.org/2000/svg" xmlns:xlink="http://www.w3.org/1999/xlink" x="0px" y="0px"
	 viewBox="0 0 841.9 595.3" enable-background="new 0 0 841.9 595.3" xml:space="preserve">
<path fill="#FFFFFF" d="M545,22.4l-56.3,56.3l151.1,151.1l56.3-56.3c29.1-29.1,29.1-76.2,0-105.2l-45.8-45.9
	c-29.1-29.1-76.2-29.1-105.2,0H545z M462.5,105l-271,271.1c-12.1,12.1-20.9,27.1-25.8,43.5l-41.2,139.9c-2.9,9.9-0.2,20.5,7,27.7
	c7.2,7.2,17.8,9.9,27.6,7.1l139.9-41.2c16.4-4.9,31.4-13.7,43.5-25.8l271.2-271.1L462.5,105z"/>
</svg>
