<?xml version="1.0" encoding="utf-8"?>
<!-- Generator: Adobe Illustrator 18.1.1, SVG Export Plug-In . SVG Version: 6.00 Build 0)  -->
<svg version="1.1" id="Слой_1" xmlns="http://www.w3.org/2000/svg" xmlns:xlink="http://www.w3.org/1999/xlink" x="0px" y="0px"
	 viewBox="0 0 841.9 595.3" enable-background="new 0 0 841.9 595.3" xml:space="preserve">
<path fill="#FFFFFF" d="M272.1,148.8c0-20.6,16.6-37.2,37.2-37.2c20.6,0,37.2,16.6,37.2,37.2v9.1c0,32.2-2.8,64.3-8.3,95.9
	l-98.1,29.4c-47.2,14.2-79.5,57.7-79.5,107v83.6c0,46.5,37.8,84.3,84.3,84.3c30.2,0,58.1-16.2,73.1-42.4l16.2-28.3
	c31.2-54.6,54.1-113.6,67.9-175l109.8-32.9l-14.5,43.6c-3.8,11.4-1.9,23.8,5.1,33.5c7,9.7,18.3,15.5,30.2,15.5h148.7
	c20.6,0,37.2-16.6,37.2-37.2c0-20.6-16.6-37.2-37.2-37.2h-97.2l20.9-62.7c4.4-13.1,1-27.7-8.6-37.7c-9.7-10-24.1-13.7-37.4-9.8
	l-142.3,42.8c2.8-24.1,4.2-48.1,4.2-72.4v-9.1c0-61.6-50-111.6-111.6-111.6s-111.6,50-111.6,111.6V186c0,20.6,16.6,37.2,37.2,37.2
	s37.2-16.6,37.2-37.2V148.8z M261.4,354.6l57-17.1c-12.1,39.3-28.5,77.2-48.9,113l-16.2,28.3c-1.7,3-5,5-8.6,5
	c-5.5,0-9.9-4.4-9.9-9.9v-83.7c0-16.4,10.8-30.9,26.5-35.7L261.4,354.6z M76.8,427.9c-15.5,0-27.9,12.4-27.9,27.9
	c0,15.5,12.4,27.9,27.9,27.9h46.9c-0.2-3.3-0.3-6.5-0.3-9.9v-45.9H76.8z M765.1,483.7c15.5,0,27.9-12.4,27.9-27.9
	c0-15.5-12.4-27.9-27.9-27.9H404.6c-7.8,19-16.5,37.6-25.9,55.8H765.1z"/>
</svg>
