<?xml version="1.0" encoding="utf-8"?>
<!-- Generator: Adobe Illustrator 18.1.1, SVG Export Plug-In . SVG Version: 6.00 Build 0)  -->
<svg version="1.1" id="Слой_1" xmlns="http://www.w3.org/2000/svg" xmlns:xlink="http://www.w3.org/1999/xlink" x="0px" y="0px"
	 viewBox="0 0 841.9 595.3" enable-background="new 0 0 841.9 595.3" xml:space="preserve">
<path fill="#FFFFFF" d="M309.3,0c82.2,0,148.8,66.6,148.8,148.8s-66.6,148.8-148.8,148.8S160.5,231,160.5,148.8S227.1,0,309.3,0z
	 M256.2,353.4h106.3c13.7,0,27.2,1.4,40.1,3.8c-2.4,21.5,8.6,41.4,25.3,52.1c-19.3,12.3-31,36.7-23.3,62c4.7,15,10.9,29.6,19.1,43.7
	c8.1,14.1,17.7,26.9,28.4,38.4c18.3,19.6,46,21.4,66.5,10.1v1c0,10.7,3.1,21.5,9.2,30.6H83.4c-19.1,0.1-34.5-15.3-34.5-34.4
	C48.9,446.2,141.7,353.4,256.2,353.4z M555.8,253.7c0-8.1,5.2-15.5,13.1-17.2c12.2-2.8,25-4.3,38-4.3c13,0,25.8,1.5,38,4.3
	c7.9,1.7,13.1,9.1,13.1,17.2v35.6c9.2,4,17.9,9,25.9,14.9l29-16.6c7.1-4.1,15.9-3.1,21.5,2.8c8.8,9.4,16.6,20,23.4,31.6
	c6.7,11.6,12,23.7,15.7,36c2.4,7.8-1.3,15.9-8.4,20l-29.1,16.7c0.5,4.7,0.8,9.4,0.8,14.3c0,4.9-0.2,9.5-0.8,14.3l29.1,16.7
	c7.1,4.1,10.7,12.2,8.4,20c-3.8,12.3-9.1,24.4-15.7,36c-6.6,11.6-14.5,22.2-23.4,31.6c-5.6,5.9-14.5,6.9-21.5,2.8l-29-16.6
	c-8,5.9-16.6,10.9-25.9,14.9v35.6c0,8.1-5.2,15.5-13.1,17.2c-12.2,2.8-25,4.3-38,4.3c-13,0-25.8-1.5-38-4.3
	c-7.9-1.7-13.1-9.1-13.1-17.2v-35.6c-9.3-4-18.1-9-26.2-15l-28.7,16.6c-7.1,4.1-15.9,3.1-21.5-2.8c-8.8-9.4-16.6-20-23.4-31.6
	c-6.7-11.6-12-23.7-15.7-36c-2.4-7.8,1.3-15.9,8.4-20l28.8-16.6c-0.5-4.8-0.8-9.5-0.8-14.4c0-4.9,0.2-9.7,0.8-14.4l-29-16.6
	c-7.1-4.1-10.7-12.2-8.4-20c3.8-12.3,9-24.4,15.7-36c6.7-11.6,14.5-22.2,23.4-31.6c5.6-5.9,14.4-6.9,21.5-2.8l28.8,16.6
	c8-5.9,16.9-10.9,26.2-15V253.7L555.8,253.7z M662.9,408.9c1.4-30.9-22.5-57-53.3-58.4c-30.9-1.4-57,22.5-58.4,53.3
	c-0.1,1.7-0.1,3.4,0,5.1c-1.4,30.9,22.5,57,53.3,58.4c30.9,1.4,57-22.5,58.4-53.3C663,412.3,663,410.6,662.9,408.9z"/>
</svg>
